<svg viewBox="0 0 19 20" fill="none" xmlns="http://www.w3.org/2000/svg">
  <g clip-path="url(#clip0_192_5828)">
    <path
      d="M9.49977 0.448242C14.4968 0.448242 18.5474 4.46097 18.5474 9.41123C18.5474 14.3615 14.4968 18.3742 9.49977 18.3742C4.50277 18.3742 0.452148 14.3615 0.452148 9.41123C0.452148 4.46097 4.50277 0.448242 9.49977 0.448242ZM9.49977 2.24084C7.58011 2.24084 5.73907 2.99629 4.38166 4.341C3.02426 5.6857 2.26167 7.50952 2.26167 9.41123C2.26167 11.3129 3.02426 13.1367 4.38166 14.4815C5.73907 15.8262 7.58011 16.5816 9.49977 16.5816C11.4194 16.5816 13.2605 15.8262 14.6179 14.4815C15.9753 13.1367 16.7379 11.3129 16.7379 9.41123C16.7379 7.50952 15.9753 5.6857 14.6179 4.341C13.2605 2.99629 11.4194 2.24084 9.49977 2.24084ZM9.49977 4.03344C9.72137 4.03346 9.93526 4.11406 10.1009 4.25994C10.2665 4.40582 10.3723 4.60684 10.3982 4.82487L10.4045 4.92973V9.04016L12.8537 11.4664C13.016 11.6277 13.1102 11.8442 13.1172 12.0718C13.1242 12.2994 13.0435 12.5211 12.8915 12.6919C12.7395 12.8627 12.5275 12.9698 12.2987 12.9914C12.0698 13.013 11.8413 12.9475 11.6594 12.8082L11.5744 12.7338L8.8601 10.0449C8.71948 9.90549 8.62917 9.72404 8.60315 9.52864L8.59501 9.41123V4.92973C8.59501 4.69202 8.69033 4.46404 8.86001 4.29596C9.02968 4.12787 9.25981 4.03344 9.49977 4.03344Z"
      fill="#313131" />
  </g>
  <defs>
    <clipPath id="clip0_192_5828">
      <rect width="19" height="20" fill="white" />
    </clipPath>
  </defs>
</svg>