<svg viewBox="0 0 110 110" fill="none" xmlns="http://www.w3.org/2000/svg">
  <path
    d="M90.5429 39.946L101.511 36.3995L101.982 37.8565L92.393 40.9572L94.0249 46.0022L103.614 42.9015L104.085 44.3586L93.1174 47.9051L90.5429 39.946Z"
    fill="#F9462F" />
  <path
    d="M96.7033 34.6387C97.2665 34.1447 97.5907 33.5678 97.6758 32.908C97.7554 32.2387 97.5986 31.5675 97.2056 30.8944C96.6576 29.9559 95.913 29.4753 94.9718 29.4527L94.9547 28.0517C96.4301 28.1184 97.5747 28.8486 98.3884 30.2421C99.0471 31.3703 99.2332 32.4946 98.9468 33.6151C98.6454 34.7317 97.9542 35.6055 96.8734 36.2364C95.8021 36.8617 94.7088 37.0359 93.5937 36.7589C92.4785 36.4819 91.5999 35.7936 90.9578 34.6939C90.3489 33.6511 90.2232 32.5868 90.5808 31.501C90.9233 30.4112 91.6113 29.5648 92.6447 28.9615C92.8249 28.8564 93.018 28.7627 93.2243 28.6805L96.7033 34.6387ZM92.1239 34.0132C92.5114 34.6768 93.0221 35.116 93.656 35.3307C94.2803 35.5509 94.9358 35.5306 95.6225 35.2696L92.8492 30.5201C92.237 31.0173 91.88 31.5816 91.7783 32.2129C91.6766 32.8443 91.7918 33.4444 92.1239 34.0132Z"
    fill="#F9462F" />
  <path
    d="M85.6092 27.6049C84.8302 26.7552 84.4778 25.7454 84.552 24.5755C84.618 23.413 85.0962 22.4238 85.9864 21.6078C86.8766 20.7919 87.9078 20.3978 89.0799 20.4254C90.244 20.4605 91.2155 20.9028 91.9944 21.7525C92.9144 22.7558 93.2148 23.8877 92.8959 25.148L96.3677 21.9659L97.3359 23.0219L88.8383 30.8102L87.8702 29.7542L88.9142 28.7974C87.6307 29.0057 86.5291 28.6082 85.6092 27.6049ZM91.0972 22.8206C90.5407 22.2137 89.867 21.8931 89.0759 21.8587C88.2767 21.8317 87.5696 22.1001 86.9545 22.6638C86.3395 23.2275 86.0148 23.9049 85.9804 24.6959C85.9379 25.4943 86.1949 26.1969 86.7513 26.8038C87.3151 27.4187 87.9966 27.7397 88.7958 27.7667C89.5869 27.8011 90.29 27.5364 90.905 26.9727C91.5201 26.4089 91.8488 25.7279 91.8913 24.9295C91.9257 24.1385 91.661 23.4356 91.0972 22.8206Z"
    fill="#F9462F" />
  <path
    d="M83.9273 19.2526C84.2334 18.5688 84.2875 17.9092 84.0899 17.274C83.8832 16.6325 83.4609 16.0877 82.8231 15.6397C81.9338 15.0151 81.0566 14.8886 80.1917 15.2604L79.5921 13.9941C80.961 13.4397 82.3058 13.6263 83.6263 14.5538C84.6954 15.3047 85.3332 16.2491 85.54 17.387C85.7314 18.5276 85.4674 19.6099 84.7479 20.6339C84.0347 21.6489 83.1136 22.263 81.9845 22.476C80.8554 22.6891 79.7698 22.4297 78.7277 21.6977C77.7396 21.0037 77.1817 20.0886 77.0541 18.9526C76.9112 17.8193 77.1837 16.7631 77.8717 15.784C77.9916 15.6133 78.1281 15.4476 78.2813 15.2869L83.9273 19.2526ZM79.504 20.5929C80.1328 21.0346 80.7801 21.2209 81.4458 21.1519C82.1051 21.0918 82.6925 20.8001 83.2078 20.2766L78.7072 17.1154C78.3579 17.8226 78.2686 18.4843 78.4394 19.1006C78.6101 19.7169 78.965 20.2143 79.504 20.5929Z"
    fill="#F9462F" />
  <path
    d="M69.8589 16.6921L70.4494 15.4413L74.0384 17.135L76.9627 10.9404L78.2583 11.5518L74.7434 18.9973L69.8589 16.6921Z"
    fill="#F9462F" />
  <path
    d="M63.5704 14.9137L65.8259 6.99529L67.2038 7.38764L65.3272 13.9758L68.4471 14.8642L69.3674 11.6335C69.7373 10.3348 70.2599 9.50202 70.9351 9.135C71.5968 8.77554 72.3908 8.77333 73.3169 9.12837L72.947 10.427C72.4296 10.1998 71.9953 10.2017 71.6442 10.4327C71.2794 10.6712 70.9768 11.2128 70.7362 12.0575L69.4461 16.5868L63.5704 14.9137Z"
    fill="#F9462F" />
  <path
    d="M55.8063 14.0408L56.6123 5.84696L58.0216 5.98554L57.7315 8.93533L58.9278 9.05296L61.5122 6.32876L63.2493 6.49956L60.5585 9.29604C61.1553 9.50915 61.6223 9.86393 61.9595 10.3604C62.2968 10.8568 62.4353 11.411 62.3751 12.0228C62.301 12.7766 61.9715 13.3785 61.3868 13.8284C60.802 14.2783 60.1054 14.4635 59.2969 14.384L55.8063 14.0408ZM59.6378 10.4134L57.6058 10.2136L57.3463 12.852L59.3783 13.0518C59.7826 13.0916 60.1385 13.0052 60.4462 12.7928C60.7539 12.5804 60.9276 12.272 60.9674 11.8678C61.0061 11.4745 60.8952 11.1437 60.6348 10.8754C60.3744 10.6071 60.0421 10.4531 59.6378 10.4134Z"
    fill="#F9462F" />
  <path
    d="M48.8809 14.5639L47.4539 14.6907L46.725 6.48961L48.152 6.36282L48.4567 9.79087L52.7049 9.41343L52.4002 5.98538L53.8272 5.85859L54.5561 14.0597L53.1291 14.1865L52.8259 10.7748L48.5777 11.1523L48.8809 14.5639Z"
    fill="#F9462F" />
  <path
    d="M40.8915 16.5669L39.4202 16.9918L40.221 7.65943C40.2995 6.6655 40.5776 5.84818 41.0553 5.20747C41.5299 4.55622 42.1651 4.14427 42.9608 3.97162L43.3309 5.25304C42.3393 5.45942 41.7797 6.19234 41.6522 7.4518L41.6079 7.77311L47.3304 14.7075L45.8749 15.1278L41.3782 9.70764L40.8915 16.5669Z"
    fill="#F9462F" />
  <path
    d="M33.8133 19.8367L33.2066 18.5937L35.7224 17.3661L32.7177 11.2101L34.0052 10.5818L37.0099 16.7379L39.5406 15.5031L40.1473 16.7461L33.8133 19.8367Z"
    fill="#F9462F" />
  <path
    d="M28.0655 23.9298L27.1361 24.6116L22.2651 17.9736L23.4069 17.136L26.8264 21.7958L27.0848 14.438L28.0142 13.7562L32.8852 20.3942L31.7433 21.2318L28.3239 16.572L28.0655 23.9298Z"
    fill="#F9462F" />
  <path
    d="M17.2118 29.9643C16.4138 30.4128 15.6519 30.3527 14.9261 29.7838C14.3904 29.364 14.092 28.8372 14.0308 28.2034C13.9716 27.5851 14.2027 26.9434 14.7243 26.2781L17.2643 23.0384L23.7444 28.1174L21.4077 31.0979C20.8997 31.7459 20.3426 32.1183 19.7366 32.2152C19.1392 32.3188 18.577 32.1641 18.0499 31.751C17.4278 31.2634 17.1485 30.6679 17.2118 29.9643ZM20.4374 30.2538L21.8699 28.4266L20.1721 27.0959L18.7396 28.9231C18.2248 29.5797 18.2569 30.1348 18.8358 30.5885C19.3887 31.022 19.9226 30.9104 20.4374 30.2538ZM15.7989 27.0158C15.5416 27.3441 15.4229 27.6556 15.4429 27.9503C15.4562 28.2536 15.6054 28.517 15.8906 28.7405C16.1584 28.9504 16.4369 29.0222 16.726 28.9559C17.017 28.905 17.2912 28.7154 17.5486 28.3871L19.1742 26.3137L17.4245 24.9424L15.7989 27.0158Z"
    fill="#F9462F" />
  <path
    d="M10.4752 32.6796C11.0563 31.5836 11.9035 30.8647 13.0166 30.5229C14.1395 30.1863 15.2441 30.3058 16.3304 30.8817C17.4167 31.4575 18.1308 32.302 18.4726 33.415C18.824 34.5331 18.7092 35.6402 18.1281 36.7362C17.7475 37.4539 17.2309 38.0063 16.5783 38.3934C15.9354 38.7857 15.2484 38.9682 14.5173 38.941L14.4694 37.5551C14.9551 37.5765 15.4172 37.4549 15.8556 37.1903C16.289 36.9355 16.6342 36.5656 16.8914 36.0806C17.2771 35.3532 17.3537 34.6111 17.1213 33.8542C16.8838 33.1071 16.3964 32.5381 15.6593 32.1474C14.9318 31.7618 14.1922 31.6803 13.4404 31.9031C12.6834 32.1355 12.1121 32.6154 11.7264 33.3428C11.4693 33.8278 11.3494 34.3233 11.3668 34.8295C11.3939 35.3409 11.5474 35.8012 11.8274 36.2105L10.6309 36.9555C10.2232 36.3418 9.99906 35.6514 9.95844 34.8844C9.92752 34.1225 10.0998 33.3876 10.4752 32.6796Z"
    fill="#F9462F" />
  <path
    d="M11.0403 40.3419C10.295 40.2652 9.65158 40.4201 9.11003 40.8066C8.56529 41.2037 8.1799 41.7752 7.95385 42.5211C7.63867 43.5612 7.79292 44.4338 8.41661 45.1389L7.40132 46.1046C6.44652 44.978 6.20312 43.6425 6.67112 42.0981C7.04999 40.8479 7.74754 39.9465 8.76379 39.3941C9.78736 38.8554 10.898 38.7674 12.0957 39.1303C13.283 39.4899 14.1543 40.1726 14.7099 41.1782C15.2655 42.1839 15.3586 43.2961 14.9893 44.5148C14.6391 45.6704 13.9444 46.4866 12.9052 46.9633C11.8734 47.4536 10.7848 47.5253 9.63965 47.1784C9.44003 47.1179 9.23993 47.0401 9.03936 46.9449L11.0403 40.3419ZM13.697 44.1233C13.9199 43.3879 13.8944 42.7149 13.6206 42.1043C13.3573 41.4969 12.8964 41.0303 12.2381 40.7047L10.643 45.9682C11.424 46.0787 12.0805 45.9564 12.6125 45.6013C13.1445 45.2463 13.506 44.7537 13.697 44.1233Z"
    fill="#F9462F" />
  <circle cx="55.0004" cy="55.0113" r="3.29336" fill="#F9462F" fill-opacity="0.5" />
  <path
    d="M19.4581 70.0765L8.49044 73.623L8.01913 72.1659L17.608 69.0653L15.9761 64.0203L6.38727 67.121L5.91596 65.6639L16.8836 62.1174L19.4581 70.0765Z"
    fill="#F9462F" />
  <path
    d="M13.2967 75.3837C12.7335 75.8778 12.4093 76.4547 12.3242 77.1145C12.2446 77.7838 12.4014 78.455 12.7944 79.1281C13.3424 80.0666 14.087 80.5472 15.0282 80.5698L15.0453 81.9707C13.5699 81.904 12.4253 81.1739 11.6116 79.7803C10.9529 78.6522 10.7668 77.5279 11.0532 76.4073C11.3546 75.2907 12.0458 74.417 13.1266 73.7861C14.1979 73.1607 15.2912 72.9866 16.4063 73.2635C17.5215 73.5405 18.4001 74.2289 19.0422 75.3286C19.6511 76.3714 19.7768 77.4357 19.4192 78.5215C19.0767 79.6112 18.3887 80.4577 17.3553 81.0609C17.1751 81.1661 16.982 81.2598 16.7757 81.342L13.2967 75.3837ZM17.8761 76.0093C17.4886 75.3457 16.9779 74.9065 16.344 74.6918C15.7197 74.4715 15.0642 74.4919 14.3775 74.7529L17.1508 79.5024C17.763 79.0052 18.12 78.4409 18.2217 77.8095C18.3234 77.1782 18.2082 76.5781 17.8761 76.0093Z"
    fill="#F9462F" />
  <path
    d="M24.3908 82.4176C25.1698 83.2672 25.5222 84.277 25.448 85.447C25.382 86.6095 24.9038 87.5987 24.0136 88.4146C23.1234 89.2305 22.0922 89.6247 20.9201 89.597C19.756 89.562 18.7845 89.1196 18.0056 88.27C17.0856 87.2666 16.7852 86.1348 17.1041 84.8745L13.6323 88.0566L12.6641 87.0006L21.1617 79.2123L22.1298 80.2682L21.0858 81.2251C22.3693 81.0167 23.4709 81.4142 24.3908 82.4176ZM18.9028 87.2019C19.4593 87.8088 20.133 88.1294 20.9241 88.1638C21.7233 88.1907 22.4304 87.9224 23.0455 87.3586C23.6605 86.7949 23.9852 86.1176 24.0196 85.3266C24.0621 84.5282 23.8051 83.8256 23.2487 83.2187C22.6849 82.6037 22.0034 82.2828 21.2042 82.2558C20.4131 82.2214 19.71 82.4861 19.095 83.0498C18.4799 83.6135 18.1512 84.2946 18.1087 85.093C18.0743 85.8839 18.339 86.5869 18.9028 87.2019Z"
    fill="#F9462F" />
  <path
    d="M26.0727 90.7698C25.7666 91.4537 25.7125 92.1132 25.9101 92.7484C26.1168 93.39 26.5391 93.9347 27.1769 94.3827C28.0662 95.0074 28.9434 95.1338 29.8083 94.7621L30.4079 96.0283C29.039 96.5827 27.6942 96.3962 26.3737 95.4686C25.3046 94.7178 24.6668 93.7734 24.46 92.6354C24.2686 91.4948 24.5326 90.4125 25.2521 89.3885C25.9653 88.3735 26.8864 87.7595 28.0155 87.5464C29.1446 87.3334 30.2302 87.5928 31.2723 88.3247C32.2604 89.0188 32.8183 89.9338 32.9459 91.0698C33.0888 92.2032 32.8163 93.2594 32.1283 94.2385C32.0084 94.4091 31.8719 94.5748 31.7187 94.7355L26.0727 90.7698ZM30.496 89.4296C29.8672 88.9879 29.2199 88.8016 28.5542 88.8706C27.8949 88.9307 27.3075 89.2224 26.7922 89.7458L31.2928 92.907C31.6421 92.1999 31.7314 91.5382 31.5606 90.9219C31.3899 90.3056 31.035 89.8081 30.496 89.4296Z"
    fill="#F9462F" />
  <path
    d="M40.1411 93.3302L39.5506 94.581L35.9616 92.8873L33.0373 99.0819L31.7417 98.4705L35.2566 91.025L40.1411 93.3302Z"
    fill="#F9462F" />
  <path
    d="M46.4305 95.1087L44.1751 103.027L42.7972 102.635L44.6738 96.0467L41.5538 95.1583L40.6336 98.389C40.2637 99.6876 39.7411 100.52 39.0658 100.887C38.4041 101.247 37.6102 101.249 36.684 100.894L37.0539 99.5955C37.5713 99.8227 38.0056 99.8208 38.3568 99.5898C38.7215 99.3512 39.0242 98.8096 39.2648 97.965L40.5549 93.4356L46.4305 95.1087Z"
    fill="#F9462F" />
  <path
    d="M54.1937 95.9816L53.3877 104.175L51.9784 104.037L52.2685 101.087L51.0722 100.969L48.4878 103.694L46.7507 103.523L49.4415 100.726C48.8447 100.513 48.3777 100.159 48.0405 99.6621C47.7032 99.1656 47.5647 98.6115 47.6249 97.9997C47.699 97.2458 48.0285 96.644 48.6132 96.1941C49.198 95.7441 49.8946 95.5589 50.7031 95.6384L54.1937 95.9816ZM50.3622 99.6091L52.3942 99.8089L52.6537 97.1705L50.6217 96.9707C50.2174 96.9309 49.8615 97.0172 49.5538 97.2297C49.2461 97.4421 49.0724 97.7504 49.0326 98.1546C48.9939 98.548 49.1048 98.8787 49.3652 99.147C49.6256 99.4153 49.9579 99.5693 50.3622 99.6091Z"
    fill="#F9462F" />
  <path
    d="M61.1201 95.4586L62.5471 95.3318L63.276 103.533L61.849 103.66L61.5443 100.232L57.2961 100.609L57.6008 104.037L56.1738 104.164L55.4449 95.9628L56.8719 95.836L57.1751 99.2477L61.4233 98.8702L61.1201 95.4586Z"
    fill="#F9462F" />
  <path
    d="M69.1095 93.4555L70.5808 93.0306L69.78 102.363C69.7015 103.357 69.4234 104.174 68.9457 104.815C68.4711 105.466 67.8359 105.878 67.0402 106.051L66.67 104.769C67.6617 104.563 68.2213 103.83 68.3488 102.571L68.3931 102.249L62.6706 95.3149L64.126 94.8946L68.6227 100.315L69.1095 93.4555Z"
    fill="#F9462F" />
  <path
    d="M76.1877 90.1857L76.7944 91.4288L74.2786 92.6563L77.2833 98.8124L75.9958 99.4406L72.9911 93.2846L70.4604 94.5194L69.8537 93.2763L76.1877 90.1857Z"
    fill="#F9462F" />
  <path
    d="M81.9355 86.0927L82.8649 85.4109L87.7359 92.0488L86.594 92.8865L83.1746 88.2266L82.9162 95.5844L81.9868 96.2662L77.1158 89.6283L78.2577 88.7906L81.6771 93.4505L81.9355 86.0927Z"
    fill="#F9462F" />
  <path
    d="M92.7882 80.0581C93.5862 79.6096 94.3481 79.6698 95.0739 80.2386C95.6096 80.6585 95.908 81.1853 95.9692 81.819C96.0284 82.4373 95.7973 83.0791 95.2757 83.7443L92.7357 86.984L86.2556 81.905L88.5923 78.9245C89.1003 78.2766 89.6574 77.9042 90.2634 77.8073C90.8608 77.7036 91.423 77.8584 91.9501 78.2715C92.5722 78.759 92.8515 79.3546 92.7882 80.0581ZM89.5626 79.7687L88.1301 81.5959L89.8279 82.9266L91.2604 81.0994C91.7752 80.4428 91.7431 79.8876 91.1642 79.4339C90.6113 79.0005 90.0774 79.1121 89.5626 79.7687ZM94.2011 83.0066C94.4584 82.6784 94.5771 82.3669 94.5571 82.0722C94.5438 81.7689 94.3946 81.5055 94.1094 81.282C93.8416 81.0721 93.5631 81.0002 93.274 81.0665C92.983 81.1174 92.7088 81.307 92.4514 81.6353L90.8258 83.7087L92.5755 85.0801L94.2011 83.0066Z"
    fill="#F9462F" />
  <path
    d="M99.5258 77.3429C98.9447 78.4389 98.0975 79.1577 96.9844 79.4995C95.8615 79.8362 94.7569 79.7166 93.6706 79.1408C92.5842 78.5649 91.8702 77.7205 91.5284 76.6075C91.177 75.4893 91.2918 74.3823 91.8729 73.2863C92.2535 72.5686 92.7701 72.0162 93.4227 71.629C94.0656 71.2368 94.7526 71.0542 95.4837 71.0814L95.5316 72.4674C95.0459 72.446 94.5838 72.5676 94.1453 72.8321C93.712 73.087 93.3667 73.4569 93.1096 73.9418C92.7239 74.6692 92.6472 75.4114 92.8796 76.1682C93.1172 76.9154 93.6045 77.4843 94.3417 77.8751C95.0691 78.2607 95.8088 78.3421 96.5606 78.1194C97.3175 77.887 97.8889 77.4071 98.2746 76.6796C98.5317 76.1947 98.6516 75.6991 98.6342 75.1929C98.6071 74.6816 98.4536 74.2212 98.1736 73.8119L99.3701 73.067C99.7778 73.6807 100.002 74.371 100.043 75.1381C100.073 75.8999 99.9012 76.6349 99.5258 77.3429Z"
    fill="#F9462F" />
  <path
    d="M98.9597 69.6806C99.705 69.7573 100.348 69.6023 100.89 69.2158C101.435 68.8188 101.82 68.2473 102.046 67.5014C102.361 66.4613 102.207 65.5887 101.583 64.8835L102.599 63.9179C103.553 65.0445 103.797 66.38 103.329 67.9244C102.95 69.1746 102.252 70.0759 101.236 70.6283C100.213 71.1671 99.102 71.255 97.9043 70.8922C96.717 70.5325 95.8457 69.8499 95.2901 68.8442C94.7345 67.8386 94.6414 66.7264 95.0107 65.5077C95.3609 64.352 96.0556 63.5359 97.0948 63.0592C98.1266 62.5688 99.2152 62.4971 100.36 62.8441C100.56 62.9045 100.76 62.9824 100.961 63.0775L98.9597 69.6806ZM96.303 65.8992C96.0801 66.6346 96.1056 67.3076 96.3794 67.9182C96.6427 68.5256 97.1036 68.9921 97.7619 69.3178L99.357 64.0542C98.576 63.9438 97.9195 64.0661 97.3875 64.4211C96.8555 64.7761 96.494 65.2688 96.303 65.8992Z"
    fill="#F9462F" />
</svg>