<svg viewBox="0 0 25 25" fill="none" xmlns="http://www.w3.org/2000/svg">
  <g clip-path="url(#clip0_192_6012)">
    <path
      d="M7.50047 0.595215H17.5005C21.31 0.595215 24.4052 3.69045 24.4052 7.49998V17.5C24.4052 19.3312 23.6778 21.0875 22.3829 22.3824C21.088 23.6773 19.3317 24.4047 17.5005 24.4047H7.50047C3.69094 24.4047 0.595703 21.3095 0.595703 17.5V7.49998C0.595703 5.66872 1.32317 3.91247 2.61806 2.61757C3.91296 1.32268 5.66921 0.595215 7.50047 0.595215ZM7.26237 2.97617C6.12573 2.97617 5.03564 3.4277 4.23191 4.23142C3.42819 5.03515 2.97666 6.12524 2.97666 7.26188V17.7381C2.97666 20.1071 4.89332 22.0238 7.26237 22.0238H17.7386C18.8752 22.0238 19.9653 21.5723 20.769 20.7685C21.5727 19.9648 22.0243 18.8747 22.0243 17.7381V7.26188C22.0243 4.89283 20.1076 2.97617 17.7386 2.97617H7.26237ZM18.7505 4.76188C19.1451 4.76188 19.5236 4.91866 19.8027 5.19773C20.0818 5.47681 20.2386 5.85531 20.2386 6.24998C20.2386 6.64464 20.0818 7.02315 19.8027 7.30222C19.5236 7.58129 19.1451 7.73807 18.7505 7.73807C18.3558 7.73807 17.9773 7.58129 17.6982 7.30222C17.4192 7.02315 17.2624 6.64464 17.2624 6.24998C17.2624 5.85531 17.4192 5.47681 17.6982 5.19773C17.9773 4.91866 18.3558 4.76188 18.7505 4.76188ZM12.5005 6.5476C14.0791 6.5476 15.5931 7.17472 16.7094 8.29101C17.8257 9.4073 18.4528 10.9213 18.4528 12.5C18.4528 14.0786 17.8257 15.5927 16.7094 16.7089C15.5931 17.8252 14.0791 18.4524 12.5005 18.4524C10.9218 18.4524 9.40778 17.8252 8.2915 16.7089C7.17521 15.5927 6.54808 14.0786 6.54808 12.5C6.54808 10.9213 7.17521 9.4073 8.2915 8.29101C9.40778 7.17472 10.9218 6.5476 12.5005 6.5476ZM12.5005 8.92855C11.5533 8.92855 10.6449 9.30482 9.97508 9.9746C9.30531 10.6444 8.92904 11.5528 8.92904 12.5C8.92904 13.4472 9.30531 14.3556 9.97508 15.0254C10.6449 15.6951 11.5533 16.0714 12.5005 16.0714C13.4477 16.0714 14.3561 15.6951 15.0258 15.0254C15.6956 14.3556 16.0719 13.4472 16.0719 12.5C16.0719 11.5528 15.6956 10.6444 15.0258 9.9746C14.3561 9.30482 13.4477 8.92855 12.5005 8.92855Z"
      fill="#313131" />
  </g>
  <defs>
    <clipPath id="clip0_192_6012">
      <rect width="25" height="25" fill="white" />
    </clipPath>
  </defs>
</svg>