<svg viewBox="0 0 16 20" fill="none" xmlns="http://www.w3.org/2000/svg">
  <g clip-path="url(#clip0_192_5824)">
    <path
      d="M8 1.99986C6.34976 1.99986 4.76712 2.65541 3.60022 3.8223C2.43333 4.9892 1.77778 6.57184 1.77778 8.22208C1.77778 10.7661 3.36178 13.2203 5.10044 15.1216C5.98946 16.0902 6.95949 16.9811 8 17.7847C8.15526 17.6656 8.33748 17.5205 8.54667 17.3492C9.38205 16.6632 10.1683 15.9195 10.8996 15.1234C12.6382 13.2203 14.2222 10.767 14.2222 8.22208C14.2222 6.57184 13.5667 4.9892 12.3998 3.8223C11.2329 2.65541 9.65024 1.99986 8 1.99986ZM8 19.9679L7.496 19.6212L7.49333 19.6194L7.488 19.615L7.47022 19.6025L7.40356 19.5554L7.16356 19.3803C5.94743 18.4663 4.81767 17.4428 3.78844 16.3225C1.97156 14.3332 0 11.4541 0 8.22119C3.16163e-08 6.09946 0.842855 4.06463 2.34315 2.56434C3.84344 1.06405 5.87827 0.221191 8 0.221191C10.1217 0.221191 12.1566 1.06405 13.6569 2.56434C15.1571 4.06463 16 6.09946 16 8.22119C16 11.4541 14.0284 14.3341 12.2116 16.3207C11.1826 17.441 10.0531 18.4645 8.83733 19.3785C8.73605 19.4542 8.63382 19.5286 8.53067 19.6016L8.512 19.6141L8.50667 19.6185L8.50489 19.6194L8 19.9679ZM8 6.4443C7.5285 6.4443 7.07632 6.6316 6.74292 6.965C6.40952 7.2984 6.22222 7.75058 6.22222 8.22208C6.22222 8.69358 6.40952 9.14576 6.74292 9.47916C7.07632 9.81256 7.5285 9.99986 8 9.99986C8.4715 9.99986 8.92368 9.81256 9.25708 9.47916C9.59048 9.14576 9.77778 8.69358 9.77778 8.22208C9.77778 7.75058 9.59048 7.2984 9.25708 6.965C8.92368 6.6316 8.4715 6.4443 8 6.4443ZM4.44444 8.22208C4.44444 7.27909 4.81905 6.37472 5.48584 5.70792C6.15264 5.04113 7.05701 4.66652 8 4.66652C8.94299 4.66652 9.84736 5.04113 10.5142 5.70792C11.181 6.37472 11.5556 7.27909 11.5556 8.22208C11.5556 9.16507 11.181 10.0694 10.5142 10.7362C9.84736 11.403 8.94299 11.7776 8 11.7776C7.05701 11.7776 6.15264 11.403 5.48584 10.7362C4.81905 10.0694 4.44444 9.16507 4.44444 8.22208Z"
      fill="#313131" />
  </g>
  <defs>
    <clipPath id="clip0_192_5824">
      <rect width="16" height="20" fill="white" />
    </clipPath>
  </defs>
</svg>