<svg width="50" height="50" viewBox="0 0 50 50" fill="none" xmlns="http://www.w3.org/2000/svg">
<path d="M11.7854 42.0236C11.1939 37.2553 13.0138 33.512 17.3359 31.5958C21.1576 29.9024 25.2067 28.6992 29.0739 27.0949C31.3942 26.1591 33.7145 25.045 35.8528 23.7081C38.8556 21.7919 39.7655 18.7616 39.902 15.3748C35.1249 15.5531 30.9848 19.029 30.3478 23.5745C32.0312 22.6386 33.487 21.8365 35.2614 20.8115C33.3051 23.2625 30.9392 24.5548 28.346 25.6689C27.436 19.3855 34.124 13.1467 41.5398 13.4141C42.2223 16.6672 41.1759 22.8614 36.2623 25.4907C33.1686 27.1841 29.8473 28.4764 26.5716 29.8133C23.5689 31.0611 20.4297 32.086 17.4724 33.4229C14.6971 34.6707 13.6507 37.1216 13.4688 40.0183C16.8355 39.8846 19.6107 37.5673 20.3387 34.3587C19.2468 34.9826 18.1548 35.7402 16.335 36.8097C18.0184 35.5174 20.5661 33.2447 22.4315 31.8186C22.659 37.4782 18.4278 42.1127 11.7854 42.0236Z" fill="#313131"/>
<path d="M8.50904 13.3691C16.7438 13.592 22.0669 18.8058 21.9759 26.3816C21.9759 27.7185 21.4754 27.9413 20.247 27.8076C11.8303 26.8718 7.69011 20.6329 8.50904 13.3691ZM14.924 20.4547C16.6073 21.8807 18.1997 23.3067 20.0196 24.8664C19.6101 19.4743 15.1515 15.2408 10.2834 15.3745C10.0559 20.5438 13.9231 25.1784 18.9731 25.6686C17.5628 23.886 16.2889 22.1926 14.924 20.4547Z" fill="#313131"/>
<path d="M25.069 0C31.393 6.23884 31.3475 14.5721 25.069 19.385C18.6541 14.9732 18.6541 5.65952 25.069 0ZM25.0235 2.62922C21.2928 6.95185 21.0199 13.3689 24.4321 15.909C24.6596 13.8146 24.887 11.8092 25.1145 9.75932C25.342 11.8538 25.524 13.8146 25.7515 16.1764C29.1182 11.7201 28.7542 6.50622 25.0235 2.62922Z" fill="#313131"/>
<path d="M27.1164 30.5256C33.5768 29.9018 38.5359 35.2493 37.7624 41.8892C31.757 43.0479 26.07 37.0319 27.1164 30.5256ZM28.9817 33.4223C29.3912 37.2101 32.7124 40.1513 35.9881 39.973C35.8971 36.1406 33.2128 32.8875 29.9826 32.7092L32.7579 36.8091C31.5295 35.7395 30.3466 34.67 28.9817 33.4223Z" fill="#313131"/>
<path d="M36.0801 29.6344C39.9018 25.1781 45.6798 25.1781 50.0019 29.5899C46.8172 34.1353 39.7198 34.1799 36.0801 29.6344ZM47.3631 29.6344C44.9063 27.6291 41.8126 27.4063 39.7198 29.0551C40.8572 29.2334 41.9036 29.4116 42.95 29.5899C41.8581 29.7681 40.8572 29.9909 39.5833 30.2138C42.1766 31.818 44.9063 31.5952 47.3631 29.6344Z" fill="#313131"/>
<path d="M0.000976562 29.6347C4.4141 25.1784 10.1466 25.1784 13.9228 29.5456C11.193 34.1356 4.14112 34.2247 0.000976562 29.6347ZM2.73074 29.6347C5.23303 31.6401 8.59974 31.8629 10.3286 30.1695L7.28035 29.6347C8.32676 29.4565 9.28218 29.2336 10.4651 29.0108C7.82631 27.4511 5.09654 27.6739 2.73074 29.6347Z" fill="#313131"/>
<path d="M25.0234 50C20.5193 46.3013 20.5193 40.7755 24.9779 36.7202C29.5731 40.0625 29.6185 46.3458 25.0234 50ZM25.6604 40.2407C25.4329 41.533 25.2509 42.5134 25.0234 43.5829C24.8415 42.5134 24.6595 41.4885 24.4775 40.2853C22.7941 42.4689 23.1581 45.722 25.1599 47.4154C26.9798 44.9644 27.2073 42.6025 25.6604 40.2407Z" fill="#313131"/>
</svg>
