<svg viewBox="0 0 235 25" fill="none" xmlns="http://www.w3.org/2000/svg">
  <path
    d="M19.3973 17.9735C19.3973 18.0753 19.3973 18.1772 19.3973 18.2281C19.3973 19.501 18.9899 20.6212 18.1749 21.6395C17.3599 22.6578 16.1884 23.4725 14.7621 24.0835C13.3359 24.6945 11.706 25 9.87227 25C7.58014 25 5.74644 24.7963 4.42209 24.3381C3.09775 23.8798 1.87528 23.2688 0.70375 22.5051L0.5 22.3523V19.0937H1.51872L1.67153 19.2973C2.23183 20.0102 2.79213 20.6721 3.30149 21.1813C3.65805 21.5377 4.11648 21.8432 4.77865 22.1996L4.93146 22.3014C5.95018 22.8106 6.9689 23.0652 8.0895 23.1161C9.10822 23.167 9.97414 23.167 10.7891 23.167L11.1457 23.1161C11.2475 23.1161 11.3494 23.1161 11.4513 23.1161C11.706 23.0652 11.9606 23.0652 12.1135 23.0143C12.7756 22.9124 13.4378 22.6578 14.1 22.3523C14.9659 21.945 15.6281 21.4358 16.0355 20.8248C16.5958 20.1629 16.8505 19.4501 16.8505 18.6864C16.8505 18.6354 16.8505 18.5845 16.7996 18.4827C16.7996 18.3808 16.7996 18.279 16.7996 18.2281C16.7487 17.668 16.5449 17.2098 16.2393 16.8024C16.0355 16.5479 15.8318 16.2933 15.5771 16.0896C14.7621 15.3768 13.8453 14.8676 12.7247 14.4603C12.3172 14.3075 11.4513 14.0529 10.1269 13.6456L8.85354 13.2892C7.27452 12.831 5.79737 12.2709 4.37116 11.5581C4.11647 11.4053 3.91273 11.3035 3.75992 11.2016C3.09775 10.7943 2.53745 10.2851 2.02809 9.72505C1.31498 8.91039 0.907493 7.99389 0.80562 6.92465C0.754684 6.82281 0.754681 6.67005 0.754681 6.5173C0.754681 6.41547 0.754681 6.31365 0.754681 6.21182C0.754681 4.98982 1.11124 3.92056 1.87528 2.95315C2.58839 1.98574 3.60712 1.27291 4.93146 0.763747C6.2558 0.254582 7.73294 0 9.41384 0C10.4835 0 11.655 0.152743 12.9794 0.407326C13.5397 0.509159 14.1509 0.661921 14.7112 0.865587C15.3734 1.06925 15.9846 1.32383 16.5958 1.52749L16.8505 1.68024V4.98981H15.8318L15.679 4.78615C15.1696 4.07332 14.4056 3.41141 13.3869 2.80041L13.285 2.74949C12.0625 2.18941 10.7382 1.93482 9.36291 1.93482C8.95542 1.93482 8.59886 1.93482 8.24231 1.98574C6.86703 2.08757 5.64456 2.54583 4.52397 3.41141C4.42209 3.51324 4.37115 3.56416 4.32022 3.61507C4.21834 3.71691 4.11648 3.81873 4.0146 3.97148C3.55618 4.53156 3.35243 5.19349 3.35243 5.90632C3.35243 5.95723 3.35243 6.00814 3.35243 6.05906C3.35243 6.10998 3.35243 6.21181 3.35243 6.31364C3.40337 6.56822 3.40337 6.7719 3.50524 6.97557C3.65805 7.48473 3.96367 7.89206 4.42209 8.24848L4.5749 8.3503C4.77864 8.55397 4.98239 8.70672 5.23707 8.85947C5.28801 8.85947 5.33895 8.91039 5.44082 8.96131C5.84831 9.21589 6.30673 9.47047 6.81609 9.67413C7.63107 9.97963 8.75167 10.387 10.2288 10.8452C11.706 11.3035 12.9284 11.7108 13.9472 12.1181C14.2528 12.22 14.5584 12.3727 14.8131 12.4745C16.0355 13.0346 17.0543 13.7474 17.9202 14.7149C18.6333 15.5295 19.0917 16.446 19.2445 17.5662C19.3464 17.668 19.3464 17.8208 19.3973 17.9735Z"
    fill="#313131" />
  <path
    d="M44.0513 0.814941V15.1225C44.0513 16.9046 43.6947 18.483 42.9816 19.9086C42.2685 21.3343 41.2498 22.3017 39.9764 22.9636C38.5502 23.6764 36.7674 24.0329 34.679 24.0329C34.5771 24.0329 34.4753 24.0329 34.4243 24.0329C32.285 23.982 30.4513 23.5746 28.9742 22.8109C27.3442 21.8944 26.1727 20.6724 25.5105 19.094C25.1539 18.2284 24.9502 17.0573 24.9502 15.5807V0.814941H27.7517V6.11025C27.8026 9.82716 27.8026 12.0675 27.8026 12.7803V15.7844C27.8026 16.7518 27.8536 17.4137 28.0064 17.821C28.4139 19.2976 29.3307 20.4178 30.8079 21.1815C32.1831 21.8944 33.864 22.1999 35.9015 22.098C37.8371 21.9962 39.2633 21.487 40.2311 20.5705C41.2498 19.654 41.912 18.3302 42.1157 16.7518C42.1666 16.2936 42.2176 15.5807 42.2176 14.6133V13.7986V0.814941H44.0513Z"
    fill="#313131" />
  <path
    d="M71.3531 0.814941H74.2055V24.0838H72.219L72.1171 23.7783C72.0662 23.5746 72.0152 23.3709 71.9134 23.0654C71.8115 22.7599 71.5059 22.1999 71.0474 21.3343C70.5381 20.5196 69.9778 19.654 69.3156 18.8394C68.6534 18.0247 67.6347 17.0573 66.3104 15.9881C64.986 14.9188 63.5089 13.9514 61.9299 13.0349C58.1096 11.0492 55.1044 9.0125 52.9651 6.92492V24.0838H50.1636V3.36077C49.9089 2.95343 49.7052 2.69885 49.5014 2.5461C49.1958 2.18968 48.8902 2.03693 48.5336 2.03693H48.0752V0.865861H51.0804L51.2332 1.0186C51.4879 1.27319 51.7935 1.78235 52.201 2.49518C52.3538 2.69885 52.4557 2.85159 52.5067 2.95342C54.3913 5.80475 57.9568 8.60516 63.2542 11.4056C66.616 13.2386 69.3156 15.428 71.3531 17.9738V0.814941Z"
    fill="#313131" />
  <path d="M82.2517 2.74976V9.26708H91.2165V11.2019H82.2517V24.0838H79.4502V0.814941H97.3797L97.8382 2.74976H82.2517Z"
    fill="#313131" />
  <path d="M105.938 22.1489H121.525L121.066 24.0838H103.188V0.814941H105.989V22.1489H105.938Z" fill="#313131" />
  <path
    d="M147.554 6.36619C148.522 8.19918 148.98 10.2868 148.98 12.5271C148.98 14.7165 148.471 16.7532 147.503 18.5861C146.535 20.4191 145.109 21.8957 143.224 23.0159C141.34 24.0851 139.099 24.6452 136.501 24.6452C133.852 24.6452 131.611 24.136 129.726 23.0668C127.842 21.9466 126.415 20.521 125.448 18.6371C124.48 16.8041 124.021 14.7674 124.021 12.5271C124.021 10.2868 124.48 8.2501 125.448 6.36619C126.415 4.53319 127.842 3.05661 129.726 1.93645C131.611 0.867201 133.852 0.307129 136.501 0.307129C139.15 0.307129 141.391 0.867201 143.275 1.93645C145.211 3.00569 146.586 4.48228 147.554 6.36619ZM128.096 17.8224C128.809 19.4008 129.879 20.6737 131.305 21.5902C132.732 22.5067 134.412 22.965 136.45 22.965C138.487 22.965 140.219 22.5067 141.645 21.5902C143.072 20.6737 144.141 19.4008 144.905 17.8224C145.618 16.1931 145.975 14.411 145.975 12.4762C145.975 10.4904 145.618 8.70834 144.905 7.07902C144.192 5.50061 143.072 4.2277 141.645 3.3112C140.219 2.3947 138.487 1.88554 136.45 1.88554C134.412 1.88554 132.732 2.34379 131.305 3.3112C129.879 4.27861 128.809 5.50061 128.096 7.07902C127.383 8.70834 126.976 10.4904 126.976 12.4762C127.027 14.4619 127.383 16.244 128.096 17.8224Z"
    fill="#313131" />
  <path
    d="M183.764 0.814941H185.904L174.29 24.0838H173.424L168.484 13.6968L163.288 24.0838H162.422L151.42 0.814941H154.578L163.288 19.705L167.414 11.4565L162.371 0.814941H165.529L168.942 8.29966L172.711 0.814941H174.851L169.961 10.5909L174.188 19.705L183.764 0.814941Z"
    fill="#313131" />
  <path
    d="M194.008 11.2013V22.1992H209.646L209.187 24.1341H191.258V0.865234H209.187L209.646 2.80005H194.059V9.31736H203.024V11.2522H194.008V11.2013Z"
    fill="#313131" />
  <path
    d="M234.041 22.8614H234.5V24.0834H232.259C230.629 24.0834 229.355 23.4724 228.337 22.1995L223.752 16.2932H217.793V24.0325H214.991V0.763672H225.688C227.114 0.763672 228.438 1.12009 229.661 1.782C230.883 2.44392 231.851 3.41133 232.513 4.58241C233.226 5.8044 233.583 7.12824 233.583 8.50298C233.583 9.87773 233.226 11.2015 232.513 12.3726C231.8 13.5437 230.832 14.5111 229.661 15.224C228.846 15.6822 228.031 15.9877 227.165 16.1405L231.444 21.5885C232.106 22.4541 232.972 22.8614 234.041 22.8614ZM225.433 14.2565C226.248 14.1547 226.961 13.9001 227.623 13.5946C228.642 13.0855 229.406 12.3726 229.916 11.558C230.425 10.7433 230.629 9.8268 230.629 8.80847L230.68 8.60481L230.629 8.40114C230.629 7.38282 230.374 6.46632 229.916 5.65166C229.406 4.78608 228.642 4.12416 227.623 3.615C226.961 3.25858 226.248 3.05491 225.433 2.95307C225.229 2.90216 225.077 2.90217 224.873 2.85125V2.90217C224.822 2.85125 224.771 2.85125 224.669 2.85125H224.465C224.313 2.80033 224.211 2.80033 224.16 2.80033H217.793V14.3584H223.854C224.109 14.3584 224.363 14.3584 224.567 14.3075C224.822 14.3075 225.077 14.3075 225.28 14.2565H225.433Z"
    fill="#313131" />
</svg>