<svg viewBox="0 0 1060 113" fill="none" xmlns="http://www.w3.org/2000/svg">
  <path
    d="M85.6032 81.2403C85.6032 81.7006 85.6032 82.1609 85.6032 82.391C85.6032 88.1446 83.7574 93.2077 80.0656 97.8106C76.3738 102.413 71.0668 106.096 64.6062 108.857C58.1456 111.619 50.762 113 42.4555 113C32.0724 113 23.7659 112.079 17.7667 110.008C11.7676 107.937 6.22991 105.175 0.922967 101.723L0 101.033V86.3035H4.61473L5.30695 87.224C7.84505 90.446 10.3831 93.4379 12.6905 95.7393C14.3057 97.3503 16.3823 98.7312 19.3819 100.342L20.0741 100.802C24.6888 103.104 29.3036 104.255 34.3798 104.485C38.9945 104.715 42.917 104.715 46.6088 104.715L48.2239 104.485C48.6854 104.485 49.1469 104.485 49.6083 104.485C50.762 104.255 51.9157 104.255 52.6079 104.024C55.6075 103.564 58.6071 102.413 61.6067 101.033C65.5292 99.1914 68.5287 96.89 70.3746 94.1283C72.9127 91.1364 74.0664 87.9145 74.0664 84.4623C74.0664 84.2322 74.0664 84.002 73.8357 83.5417C73.8357 83.0814 73.8357 82.6211 73.8357 82.391C73.6049 79.8594 72.682 77.7882 71.2976 75.947C70.3746 74.7963 69.4517 73.6456 68.298 72.7251C64.6062 69.5031 60.453 67.2016 55.3768 65.3605C53.5309 64.67 49.6084 63.5193 43.6092 61.6782L37.8408 60.0672C30.688 57.9959 23.9966 55.4644 17.536 52.2424C16.3823 51.552 15.4594 51.0916 14.7672 50.6314C11.7676 48.7902 9.22946 46.4888 6.92209 43.9572C3.69178 40.275 1.84591 36.1324 1.38443 31.2994C1.1537 30.8391 1.15368 30.1486 1.15368 29.4582C1.15368 28.9979 1.15368 28.5377 1.15368 28.0774C1.15368 22.554 2.76887 17.7209 6.22991 13.3482C9.46022 8.97553 14.075 5.75356 20.0741 3.45214C26.0732 1.15071 32.7646 0 40.3789 0C45.2243 0 50.5313 0.6904 56.5304 1.84111C59.0685 2.3014 61.8374 2.99188 64.3755 3.91245C67.3751 4.83302 70.1439 5.98371 72.9127 6.90428L74.0664 7.59468V22.5539H69.4517L68.7595 21.6334C66.4521 18.4114 62.9911 15.4196 58.3763 12.6578L57.9149 12.4277C52.3772 9.89612 46.3781 8.74539 40.1482 8.74539C38.3023 8.74539 36.6871 8.7454 35.072 8.97554C28.8421 9.43583 23.3044 11.5072 18.2282 15.4196C17.7667 15.8799 17.536 16.11 17.3052 16.3401C16.8438 16.8004 16.3823 17.2607 15.9208 17.9511C13.8442 20.4827 12.9213 23.4746 12.9213 26.6965C12.9213 26.9267 12.9213 27.1568 12.9213 27.3869C12.9213 27.6171 12.9213 28.0774 12.9213 28.5377C13.152 29.6884 13.152 30.609 13.6135 31.5296C14.3057 33.831 15.6901 35.6721 17.7667 37.2831L18.4589 37.7434C19.3819 38.6639 20.3048 39.3544 21.4585 40.0448C21.6892 40.0448 21.92 40.275 22.3815 40.5051C24.2274 41.6558 26.304 42.8065 28.6113 43.7271C32.3031 45.1079 37.3793 46.9491 44.0707 49.0203C50.762 51.0916 56.2997 52.9328 60.9144 54.7739C62.2989 55.2342 63.6833 55.9246 64.837 56.3849C70.3746 58.9165 74.9894 62.1385 78.9119 66.5112C82.1422 70.1935 84.2188 74.336 84.911 79.3992C85.3725 79.8595 85.3725 80.5499 85.6032 81.2403Z"
    fill="#FFE4EE" />
  <path
    d="M197.282 3.6822V68.3523C197.282 76.4073 195.667 83.5417 192.437 89.9857C189.206 96.4296 184.592 100.802 178.823 103.794C172.362 107.016 164.287 108.627 154.827 108.627C154.365 108.627 153.904 108.627 153.673 108.627C143.982 108.397 135.675 106.556 128.984 103.104C121.6 98.9612 116.294 93.4378 113.294 86.3034C111.679 82.3909 110.756 77.0977 110.756 70.4235V3.6822H123.446V27.617C123.677 44.4174 123.677 54.5437 123.677 57.7657V71.3441C123.677 75.7168 123.908 78.7087 124.6 80.5498C126.446 87.2239 130.599 92.2871 137.291 95.7392C143.52 98.9612 151.135 100.342 160.364 99.8818C169.132 99.4215 175.593 97.1201 179.977 92.9775C184.592 88.8349 187.591 82.8512 188.514 75.7168C188.745 73.6455 188.976 70.4236 188.976 66.0508V62.3686V3.6822H197.282Z"
    fill="#FFE4EE" />
  <path
    d="M320.957 3.6822H333.879V108.857H324.88L324.418 107.477C324.188 106.556 323.957 105.635 323.495 104.254C323.034 102.874 321.65 100.342 319.573 96.4296C317.266 92.7473 314.727 88.8349 311.728 85.1526C308.728 81.4704 304.114 77.0976 298.114 72.2646C292.115 67.4317 285.424 63.059 278.271 58.9164C260.966 49.9408 247.352 40.7351 237.661 31.2993V108.857H224.971V15.1893C223.817 13.3482 222.894 12.1975 221.971 11.507C220.587 9.89603 219.203 9.2056 217.587 9.2056H215.511V3.91235H229.124L229.816 4.60275C230.97 5.75347 232.355 8.05488 234.2 11.2769C234.893 12.1974 235.354 12.8879 235.585 13.3481C244.122 26.2361 260.274 38.894 284.27 51.5518C299.499 59.837 311.728 69.7331 320.957 81.2402V3.6822Z"
    fill="#FFE4EE" />
  <path d="M370.33 12.4276V41.8859H410.94V50.6313H370.33V108.857H357.64V3.6822H438.859L440.936 12.4276H370.33Z"
    fill="#FFE4EE" />
  <path d="M477.626 100.112H548.231L546.155 108.857H465.166V3.6822H477.857V100.112H477.626Z" fill="#FFE4EE" />
  <path
    d="M666.139 28.7676C670.523 37.0527 672.6 46.4886 672.6 56.6149C672.6 66.511 670.293 75.7167 665.909 84.0018C661.525 92.2869 655.064 98.9611 646.527 104.024C637.989 108.857 627.837 111.389 616.069 111.389C604.071 111.389 593.919 109.087 585.382 104.254C576.844 99.1912 570.384 92.7472 566 84.232C561.616 75.9468 559.539 66.7411 559.539 56.6149C559.539 46.4886 561.616 37.2829 566 28.7676C570.384 20.4825 576.844 13.8083 585.382 8.74517C593.919 3.91217 604.071 1.38065 616.069 1.38065C628.068 1.38065 638.22 3.91217 646.757 8.74517C655.525 13.5782 661.755 20.2523 666.139 28.7676ZM577.998 80.5497C581.228 87.6841 586.074 93.4376 592.534 97.5802C598.995 101.723 606.609 103.794 615.839 103.794C625.068 103.794 632.913 101.723 639.374 97.5802C645.835 93.4376 650.68 87.6841 654.141 80.5497C657.371 73.1851 658.986 65.1301 658.986 56.3847C658.986 47.4091 657.371 39.3541 654.141 31.9896C650.911 24.8552 645.835 19.1016 639.374 14.959C632.913 10.8165 625.068 8.51508 615.839 8.51508C606.609 8.51508 598.995 10.5863 592.534 14.959C586.074 19.3318 581.228 24.8552 577.998 31.9896C574.768 39.3541 572.922 47.4091 572.922 56.3847C573.153 65.3603 574.768 73.4153 577.998 80.5497Z"
    fill="#FFE4EE" />
  <path
    d="M830.19 3.68216H839.881L787.273 108.857H783.351L760.97 61.9082L737.434 108.857H733.512L683.673 3.68216H697.978L737.434 89.0651L756.124 51.7819L733.281 3.68216H747.587L763.046 37.5131L780.121 3.68216H789.812L767.661 47.8695L786.812 89.0651L830.19 3.68216Z"
    fill="#FFE4EE" />
  <path
    d="M876.57 50.6311V100.342H947.406L945.329 109.087H864.11V3.91216H945.329L947.406 12.6575H876.801V42.1158H917.41V50.8612H876.57V50.6311Z"
    fill="#FFE4EE" />
  <path
    d="M1057.92 103.334H1060V108.857H1049.85C1042.46 108.857 1036.7 106.095 1032.08 100.342L1011.31 73.6452H984.318V108.627H971.628V3.45178H1020.08C1026.54 3.45178 1032.54 5.06278 1038.08 8.05463C1043.62 11.0465 1048 15.4192 1051 20.7125C1054.23 26.2359 1055.85 32.2196 1055.85 38.4335C1055.85 44.6473 1054.23 50.631 1051 55.9242C1047.77 61.2175 1043.39 65.5902 1038.08 68.8122C1034.39 70.8835 1030.7 72.2644 1026.77 72.9548L1046.16 97.5801C1049.16 101.492 1053.08 103.334 1057.92 103.334ZM1018.93 64.4396C1022.62 63.9793 1025.85 62.8286 1028.85 61.4477C1033.47 59.1463 1036.93 55.9243 1039.23 52.242C1041.54 48.5597 1042.46 44.4171 1042.46 39.8143L1042.69 38.8937L1042.46 37.9732C1042.46 33.3703 1041.31 29.2278 1039.23 25.5455C1036.93 21.6331 1033.47 18.6412 1028.85 16.3398C1025.85 14.7288 1022.62 13.8082 1018.93 13.3479C1018.01 13.1177 1017.31 13.1178 1016.39 12.8876V13.1178C1016.16 12.8877 1015.93 12.8876 1015.47 12.8876H1014.54C1013.85 12.6575 1013.39 12.6575 1013.16 12.6575H984.318V64.8999H1011.78C1012.93 64.8999 1014.08 64.8998 1015.01 64.6697C1016.16 64.6697 1017.31 64.6697 1018.24 64.4396H1018.93Z"
    fill="#FFE4EE" />
</svg>