<svg viewBox="0 0 20 20" fill="none" xmlns="http://www.w3.org/2000/svg">
  <g clip-path="url(#clip0_192_5834)">
    <path
      d="M5.67939 1.48145C6.17321 1.48145 8.14852 5.92589 8.14852 6.41972C8.14852 7.40737 6.66704 8.39503 6.17321 9.38268C5.67939 10.3703 6.66704 11.358 7.65469 12.3456C8.03988 12.7308 9.63 14.321 10.6177 13.8271C11.6053 13.3333 12.593 11.8518 13.5806 11.8518C14.0744 11.8518 18.5189 13.8271 18.5189 14.321C18.5189 16.2963 17.0374 17.7777 15.5559 18.2716C14.0744 18.7654 13.0868 18.7654 11.1115 18.2716C9.13618 17.7777 7.65469 17.2839 5.18556 14.8148C2.71642 12.3456 2.2226 10.8642 1.72877 8.88885C1.23494 6.91354 1.23494 5.92589 1.72877 4.44441C2.2226 2.96293 3.70408 1.48145 5.67939 1.48145Z"
      stroke="#313131" stroke-width="1.7" stroke-linecap="round" stroke-linejoin="round" />
  </g>
  <defs>
    <clipPath id="clip0_192_5834">
      <rect width="20" height="20" fill="white" />
    </clipPath>
  </defs>
</svg>