<svg width="20" height="20" viewBox="0 0 20 20" fill="none" xmlns="http://www.w3.org/2000/svg">
  <g clip-path="url(#clip0_192_6077)">
    <path
      d="M5.68036 1.48145C6.17419 1.48145 8.1495 5.92589 8.1495 6.41972C8.1495 7.40737 6.66802 8.39503 6.17419 9.38268C5.68036 10.3703 6.66802 11.358 7.65567 12.3456C8.04086 12.7308 9.63098 14.321 10.6186 13.8271C11.6063 13.3333 12.5939 11.8518 13.5816 11.8518C14.0754 11.8518 18.5199 13.8271 18.5199 14.321C18.5199 16.2963 17.0384 17.7777 15.5569 18.2716C14.0754 18.7654 13.0878 18.7654 11.1125 18.2716C9.13715 17.7777 7.65567 17.2839 5.18654 14.8148C2.7174 12.3456 2.22357 10.8642 1.72975 8.88885C1.23592 6.91354 1.23592 5.92589 1.72975 4.44441C2.22357 2.96293 3.70505 1.48145 5.68036 1.48145Z"
      stroke="#313131" stroke-width="1.7" stroke-linecap="round" stroke-linejoin="round" />
  </g>
  <defs>
    <clipPath id="clip0_192_6077">
      <rect width="20" height="20" fill="white" transform="translate(0.000976562)" />
    </clipPath>
  </defs>
</svg>