<svg viewBox="0 0 54 60" fill="none" xmlns="http://www.w3.org/2000/svg">
  <path
    d="M10.305 47.7858C9.78767 43.5426 11.3794 40.2115 15.1598 38.5062C18.5025 36.9993 22.0441 35.9286 25.4265 34.501C27.456 33.6682 29.4855 32.6768 31.3558 31.4871C33.9821 29.7819 34.778 27.0852 34.8974 24.0714C30.7191 24.23 27.0979 27.3232 26.5408 31.3681C28.0131 30.5353 29.2865 29.8215 30.8385 28.9094C29.1273 31.0905 27.0581 32.2406 24.7898 33.232C23.994 27.6404 29.8436 22.0885 36.33 22.3265C36.9269 25.2214 36.0116 30.7336 31.7139 33.0733C29.008 34.5803 26.103 35.7303 23.2379 36.92C20.6115 38.0304 17.8658 38.9425 15.2792 40.1322C12.8518 41.2425 11.9365 43.4236 11.7773 46.0013C14.7221 45.8823 17.1495 43.8202 17.7862 40.9649C16.8311 41.5201 15.8761 42.1943 14.2843 43.146C15.7567 41.996 17.9851 39.9735 19.6167 38.7045C19.8156 43.7409 16.1148 47.8651 10.305 47.7858Z"
    fill="#313131" />
  <path
    d="M7.43964 22.2869C14.6423 22.4851 19.2981 27.1249 19.2185 33.8665C19.2185 35.0562 18.7808 35.2545 17.7064 35.1355C10.3446 34.3027 6.72336 28.7508 7.43964 22.2869ZM13.0505 28.5922C14.5229 29.8612 15.9157 31.1302 17.5074 32.5182C17.1493 27.7198 13.2495 23.9524 8.99158 24.0714C8.79262 28.6715 12.1751 32.7958 16.5922 33.232C15.3586 31.6457 14.2443 30.1388 13.0505 28.5922Z"
    fill="#313131" />
  <path
    d="M21.9259 10.3899C27.4572 15.9418 27.4174 23.3575 21.9259 27.6404C16.3151 23.7144 16.3151 15.4262 21.9259 10.3899ZM21.8861 12.7296C18.6231 16.5763 18.3843 22.2868 21.3688 24.5472C21.5678 22.6833 21.7668 20.8988 21.9657 19.0746C22.1647 20.9385 22.3239 22.6833 22.5228 24.7851C25.4676 20.8195 25.1492 16.1797 21.8861 12.7296Z"
    fill="#313131" />
  <path
    d="M23.7169 37.5545C29.3676 36.9993 33.7051 41.7581 33.0286 47.6668C27.7758 48.6979 22.8016 43.3443 23.7169 37.5545ZM25.3484 40.1322C25.7066 43.5029 28.6115 46.1202 31.4766 45.9616C31.397 42.5512 29.0492 39.6563 26.2239 39.4976L28.6513 43.146C27.5769 42.1943 26.5422 41.2425 25.3484 40.1322Z"
    fill="#313131" />
  <path
    d="M31.5557 36.7614C34.8983 32.7957 39.9521 32.7957 43.7325 36.7217C40.9469 40.7666 34.7391 40.8063 31.5557 36.7614ZM41.4245 36.7614C39.2756 34.9768 36.5697 34.7785 34.7391 36.2458C35.734 36.4045 36.6492 36.5631 37.5645 36.7217C36.6094 36.8803 35.734 37.0786 34.6198 37.2769C36.888 38.7045 39.2756 38.5062 41.4245 36.7614Z"
    fill="#313131" />
  <path
    d="M0 36.7614C3.85997 32.7958 8.87396 32.7958 12.1768 36.6821C9.78921 40.7667 3.62121 40.846 0 36.7614ZM2.38761 36.7614C4.57626 38.546 7.52098 38.7442 9.03314 37.2373L6.36697 36.7614C7.28222 36.6028 8.11788 36.4045 9.15251 36.2062C6.84449 34.8183 4.45688 35.0166 2.38761 36.7614Z"
    fill="#313131" />
  <path
    d="M21.8884 54.8843C17.9488 51.5928 17.9488 46.6754 21.8486 43.0667C25.8677 46.0409 25.9075 51.6325 21.8884 54.8843ZM22.4455 46.1996C22.2465 47.3496 22.0873 48.222 21.8884 49.1738C21.7292 48.222 21.57 47.3099 21.4108 46.2392C19.9385 48.1824 20.2568 51.0773 22.0078 52.5842C23.5995 50.4031 23.7985 48.3013 22.4455 46.1996Z"
    fill="#313131" />
  <path
    d="M4.17959 5.67081C4.41835 5.75012 4.53774 5.90875 4.81629 6.38462L4.6969 6.46393C4.33876 5.9484 3.82145 5.90875 3.42352 6.18634C2.78682 6.5829 2.8664 7.29672 3.30413 8.01053C3.74186 8.72434 4.37856 9.1209 5.01526 8.72434C5.45299 8.44675 5.57237 8.1295 5.61216 7.65362H5.81113C5.81113 8.28812 5.57237 8.72434 5.05506 9.00194C4.10001 9.59678 3.26434 9.16056 2.74702 8.32778C2.22971 7.49499 2.22971 6.54324 3.18475 5.9484C3.58269 5.75012 3.94083 5.63115 4.17959 5.67081Z"
    fill="#313131" />
  <path
    d="M6.72552 4.52076C6.32759 4.67939 6.12862 5.07595 6.32759 5.51217L6.20821 5.55182L6.04904 5.15526C5.92966 4.87767 5.92965 4.56042 6.32759 4.40179L8.7152 3.37073L8.83459 3.64833L7.72036 4.1242L8.99376 7.01911L8.39686 7.2967L7.12346 4.40179L6.72552 4.52076Z"
    fill="#313131" />
  <path
    d="M12.6156 5.78984L10.7851 3.33115C10.5464 3.0139 10.228 2.93458 9.86986 2.97424L9.83008 2.81561L10.427 2.65699C10.8647 2.53802 11.1831 2.69664 11.4218 2.97424L12.735 4.71912L12.9738 2.02249L13.3319 1.94318L12.934 6.10709C12.8544 6.97953 12.5758 7.21746 12.0983 7.33643L11.8993 7.37609L11.8595 7.17781C12.2973 7.05884 12.5758 6.8209 12.6156 6.1864V5.78984Z"
    fill="#313131" />
  <path
    d="M15.1611 1.78447V1.62585L18.0661 1.30859L18.4242 4.44144L18.7028 4.40179C18.8619 4.40179 18.9813 4.4811 18.9813 4.63973L19.1007 5.78976L18.8221 5.82942C18.663 5.03629 18.3844 4.71904 17.9467 4.79835L16.1958 4.99663C15.7182 5.03629 15.5591 5.3932 15.5591 6.22598L15.2805 6.26563L15.1611 5.1156C15.1611 4.95698 15.2407 4.83801 15.3999 4.83801L15.5989 4.79835C15.8376 4.04488 15.8376 3.13278 15.758 2.49828C15.7182 2.02241 15.5989 1.74481 15.1611 1.78447ZM17.7477 4.52076L17.4294 1.70516L16.2753 1.82413C16.4345 3.05347 16.3947 3.92591 16.1958 4.71904L17.7477 4.52076Z"
    fill="#313131" />
  <path
    d="M21.2897 4.67944H20.6132L20.653 2.14144C20.653 1.70522 20.5735 1.42763 20.1357 1.38797H19.9766V1.22935H20.653C21.1704 1.22935 21.3295 1.38797 21.2897 2.10178V4.67944ZM20.9714 0.793126C20.7326 0.793126 20.5735 0.555189 20.5735 0.317252C20.5735 0.11897 20.6928 0 20.9316 0C21.1704 0 21.3295 0.237943 21.3295 0.47588C21.2897 0.674162 21.1704 0.832782 20.9714 0.793126Z"
    fill="#313131" />
  <path
    d="M25.7475 5.11568L25.1108 5.03637L25.3097 3.60874L24.7526 3.52943L24.1955 4.32256C23.917 4.71912 23.6384 4.9174 23.2007 4.83809C23.0415 4.83809 22.9221 4.75877 22.8027 4.71912V4.56049C23.1211 4.56049 23.3996 4.32255 23.5588 4.08462L24.1159 3.3708C23.6782 3.25183 23.3201 2.85527 23.3996 2.30008C23.519 1.54661 24.1955 1.42764 24.9914 1.50696L26.7025 1.7449V1.90352C26.2648 1.86386 26.1454 2.14146 26.1056 2.53802L25.7475 5.11568ZM25.5485 1.94318C25.4291 1.90352 25.2301 1.82421 25.071 1.82421C24.5537 1.7449 24.1955 1.94318 24.1557 2.41905C24.0761 2.93458 24.3945 3.17252 24.872 3.25184C25.0312 3.25184 25.2302 3.25184 25.3495 3.25184L25.5485 1.94318Z"
    fill="#313131" />
  <path
    d="M31.7573 5.03636L33.0705 4.16391C33.3888 3.96563 33.7072 3.88632 34.1449 4.0846L34.3041 4.16391L34.2245 4.32254C34.0255 4.24323 33.747 4.20357 33.5082 4.40185L32.3542 5.15532L32.7521 6.46398C32.8715 6.86054 33.0307 7.17779 33.3092 7.33642L33.2694 7.45539C33.1899 7.45539 33.0307 7.45539 32.9113 7.37607C32.5532 7.2571 32.3144 6.93986 32.1552 6.42433L31.7573 5.11567L31.1604 6.58295L30.5635 6.34501L31.5185 3.96563C31.6777 3.56907 31.7175 3.25182 31.3196 3.09319L31.2002 3.05354L31.24 2.93457L31.8369 3.1725C32.3144 3.37079 32.394 3.56907 32.1154 4.24323L31.7573 5.03636Z"
    fill="#313131" />
  <path
    d="M37.2477 5.71056C37.8844 6.06746 38.3619 6.58299 38.0038 7.17784C37.8048 7.53475 37.4865 7.65371 36.9691 7.45543C37.4069 7.81234 37.5263 8.24856 37.3273 8.60547C36.9691 9.23997 36.2927 9.08134 35.5366 8.64512L34.502 8.05028L35.7753 5.82953C36.0141 5.43296 36.0937 5.15537 35.6958 4.95708L35.6162 4.91743L35.6958 4.79846L37.2477 5.71056ZM35.8549 6.97956L35.1784 8.12959C35.258 8.2089 35.4172 8.36753 35.5366 8.44684C36.0539 8.72443 36.4518 8.72444 36.6906 8.28822C36.9294 7.89165 36.7702 7.53475 36.1733 7.17784L35.8549 6.97956ZM36.0141 6.74162L36.3722 6.9399C36.81 7.17784 37.2079 7.17784 37.4069 6.82094C37.6058 6.46403 37.4467 6.10712 37.0487 5.90884C36.9294 5.82953 36.7304 5.75021 36.611 5.75021L36.0141 6.74162Z"
    fill="#313131" />
  <path
    d="M38.8806 10.9055L38.3633 10.5089L39.9152 8.48648C40.1938 8.12957 40.3132 7.85198 39.955 7.61404L39.8356 7.53473L39.9152 7.41576L40.4326 7.81232C40.8305 8.12958 40.8703 8.32785 40.4326 8.9227L38.8806 10.9055ZM40.9101 7.61404C40.7111 7.49507 40.7111 7.17782 40.8703 6.97954C40.9897 6.82092 41.1886 6.78126 41.3478 6.90023C41.5468 7.0192 41.5468 7.33644 41.3876 7.53473C41.2682 7.69335 41.0692 7.73301 40.9101 7.61404Z"
    fill="#313131" />
  <path
    d="M43.0182 10.2709C42.6999 9.95367 42.302 9.91401 41.9438 10.2709L41.8244 10.152L42.1428 9.8347C42.3417 9.63642 42.6203 9.4778 42.9386 9.79505L44.8089 11.5796L44.61 11.7779L43.7345 10.9451L41.5459 13.2055L41.0684 12.7693L43.257 10.5089L43.0182 10.2709Z"
    fill="#313131" />
  <path
    d="M43.8537 15.8228L43.416 15.3073L45.4057 13.6814C45.7638 13.4038 45.923 13.1659 45.6445 12.809L45.5649 12.69L45.6842 12.6107L46.122 13.1262C46.4403 13.5228 46.4403 13.7211 45.8434 14.1969L43.8537 15.8228ZM46.6393 13.0469C46.4801 12.8883 46.5597 12.6107 46.7587 12.4521C46.9178 12.3331 47.077 12.3331 47.2362 12.4917C47.3954 12.6503 47.3158 12.9279 47.1168 13.0865C46.9178 13.2452 46.7587 13.2055 46.6393 13.0469Z"
    fill="#313131" />
  <path
    d="M48.6686 16.616C49.0665 17.2505 49.2257 17.885 48.6686 18.2419C48.3104 18.4402 47.9921 18.4006 47.634 18.0437C47.8329 18.5592 47.7533 18.9954 47.3952 19.2333C46.7585 19.6299 46.2412 19.1937 45.7637 18.4402L45.127 17.4092L47.2758 16.0212C47.6339 15.7833 47.8727 15.585 47.634 15.1884L47.5942 15.1091L47.7135 15.0298L48.6686 16.616ZM46.8779 17.0919L45.7637 17.8057C45.8034 17.9247 45.883 18.123 45.9626 18.2419C46.281 18.7178 46.6391 18.8764 47.0371 18.6385C47.435 18.4006 47.435 18.004 47.0768 17.4488L46.8779 17.0919ZM47.1166 16.9333L47.3156 17.2902C47.5942 17.7264 47.9523 17.885 48.3104 17.6471C48.6686 17.4488 48.6686 17.0523 48.4298 16.6557C48.3502 16.5367 48.1911 16.3781 48.1115 16.2988L47.1166 16.9333Z"
    fill="#313131" />
  <path
    d="M51.652 23.2783C51.4928 22.8818 51.1745 22.6438 50.697 22.8024L50.6572 22.6835L51.0551 22.5248C51.3336 22.4455 51.652 22.4455 51.7714 22.8421L52.607 25.3008L52.3285 25.3801L51.9306 24.2301L48.946 25.2611L48.7471 24.6266L51.7316 23.5956L51.652 23.2783Z"
    fill="#313131" />
  <path
    d="M50.1405 29.8612L50.4191 29.5439V29.5043C50.2201 29.3853 49.9415 29.1077 49.8222 28.5922C49.7426 28.1956 49.8222 27.5215 50.618 27.3628C51.4139 27.2042 51.772 28.037 51.971 28.9887L52.0108 29.187C53.0056 28.9887 53.1648 28.6318 53.0852 28.1956C53.0056 27.7991 52.8067 27.5215 52.3291 27.5215L52.2496 27.2042C52.4883 27.1645 52.7271 27.1249 52.9261 27.2439C53.125 27.4025 53.2842 27.8387 53.3638 28.2749C53.4832 28.9094 53.4036 29.5836 52.0904 29.8215L50.1405 30.1784V29.8612ZM51.7322 29.2663L51.6924 29.0681C51.5731 28.3542 51.1751 27.9577 50.7374 28.037C50.2599 28.1163 50.1007 28.4732 50.1803 28.8301C50.2599 29.187 50.4986 29.3456 50.7374 29.425L51.7322 29.2663Z"
    fill="#313131" />
  <path
    d="M53.8426 35.0562H54.0018L53.8028 37.9907L50.6591 37.7925V38.07C50.6591 38.2287 50.5397 38.308 50.3806 38.308L49.2266 38.2287V37.9511C50.0224 37.9114 50.3806 37.7131 50.4204 37.2373L50.5397 35.4924C50.5795 35.0165 50.2612 34.7786 49.4653 34.6596V34.382L50.6193 34.4613C50.7785 34.4613 50.8581 34.5803 50.8581 34.7389V34.9769C51.5744 35.3338 52.4498 35.5321 53.0865 35.5717C53.4845 35.5717 53.8028 35.4924 53.8426 35.0562ZM50.6989 37.158L53.5641 37.3562L53.6436 36.2062C52.41 36.1269 51.5346 35.9683 50.8183 35.6114L50.6989 37.158Z"
    fill="#313131" />
  <path
    d="M51.0559 42.7495L51.5335 40.608C50.7376 40.4494 50.1009 40.6477 49.9417 41.2822C49.8224 41.758 49.9815 42.0753 50.2999 42.3925L50.1407 42.5115C49.6632 42.0753 49.5438 41.5994 49.6632 41.0442C49.9019 40.0528 50.7774 39.7356 51.7324 39.9339C52.6875 40.1321 53.364 40.8063 53.165 41.7184C52.966 42.6701 52.2895 43.027 51.2549 42.7891L51.0559 42.7495ZM51.4937 42.1546C52.2896 42.3132 52.8069 42.1943 52.9262 41.6787C53.0058 41.2425 52.5681 40.8063 51.8518 40.6477L51.4937 42.1546Z"
    fill="#313131" />
  <path
    d="M50.2609 45.3669L51.1364 46.6755C51.3353 46.9928 51.4149 47.2704 51.2557 47.7463L51.1762 47.9049L51.017 47.8256C51.0966 47.6273 51.1364 47.3497 50.9374 47.1118L50.1813 45.9617L48.9079 46.3583C48.51 46.4773 48.1916 46.6359 48.0325 46.9135L47.9131 46.8738C47.9131 46.7945 47.9131 46.6359 47.9927 46.5169C48.1121 46.16 48.4304 45.8824 48.9079 45.7238L50.2211 45.3272L48.7488 44.772L48.9875 44.1772L51.3751 45.0893C51.7731 45.2479 52.0914 45.2876 52.2506 44.891L52.2904 44.772L52.4098 44.8117L52.171 45.4065C51.972 45.8824 51.8129 45.9617 51.0966 45.7238L50.2609 45.3669Z"
    fill="#313131" />
  <path
    d="M49.7435 50.8791C49.2262 51.7911 48.2313 51.8705 47.3957 51.3946C46.5202 50.9187 46.1223 50.0066 46.5998 49.1342C47.1171 48.2617 48.1119 48.1428 48.9476 48.6186C49.8231 49.0945 50.221 50.0066 49.7435 50.8791ZM49.4649 50.7601C49.7435 50.2842 49.3455 49.6497 48.5895 49.2135C47.8732 48.8169 47.1171 48.8169 46.8386 49.2928C46.56 49.7687 46.9579 50.4032 47.714 50.8394C48.4303 51.236 49.1864 51.236 49.4649 50.7601Z"
    fill="#313131" />
  <path
    d="M46.9178 53.5756C47.276 53.8532 47.5545 53.9722 47.7933 53.6153L47.8729 53.4963L47.9923 53.5756L47.5943 54.0912C47.3556 54.3688 47.1566 54.4481 46.9576 54.3688L46.9178 54.4084C46.9576 54.6464 46.9576 55.0033 46.6393 55.4395C46.0822 56.1136 45.2067 55.955 44.4109 55.3602C43.615 54.7653 43.2568 53.8929 43.8537 53.1791C44.0925 52.8618 44.3711 52.7032 44.6098 52.5842L43.416 51.6325L43.814 51.1169L46.9178 53.5756ZM44.8486 52.7825C44.6098 52.9015 44.3711 53.0205 44.2517 53.1791C43.8537 53.6946 44.2119 54.2895 44.8486 54.805C45.4853 55.3205 46.2016 55.5188 46.5597 55.0826C46.7985 54.7653 46.7587 54.4481 46.6791 54.2101L44.8486 52.7825Z"
    fill="#313131" />
  <path
    d="M40.949 56.2723L43.7346 57.581C44.0927 57.7396 44.4509 57.7 44.7294 57.462L44.8488 57.581L44.4111 58.0172C44.0927 58.3345 43.7346 58.3345 43.3764 58.1758L41.4266 57.2637L42.4612 59.7621L42.1826 60L40.5909 56.1534C40.2725 55.3602 40.3919 55.0033 40.7501 54.6464L40.9092 54.4878L41.0684 54.6464C40.7501 54.9637 40.5909 55.2809 40.8695 55.8758L40.949 56.2723Z"
    fill="#313131" />
</svg>