<svg viewBox="0 0 25 25" fill="none" xmlns="http://www.w3.org/2000/svg">
  <g clip-path="url(#clip0_192_6010)">
    <path
      d="M12.5005 0.595215C5.92904 0.595215 0.595703 5.92855 0.595703 12.5C0.595703 19.0714 5.92904 24.4047 12.5005 24.4047C19.0719 24.4047 24.4052 19.0714 24.4052 12.5C24.4052 5.92855 19.0719 0.595215 12.5005 0.595215ZM18.0243 8.69045C17.8457 10.5714 17.0719 15.1428 16.679 17.25C16.5124 18.1428 16.179 18.4405 15.8695 18.4762C15.179 18.5357 14.6552 18.0238 13.9886 17.5833C12.9409 16.8928 12.3457 16.4643 11.3338 15.7976C10.1552 15.0238 10.9171 14.5952 11.5957 13.9047C11.7743 13.7262 14.8219 10.9524 14.8814 10.7024C14.8897 10.6645 14.8886 10.6252 14.8782 10.5878C14.8678 10.5505 14.8485 10.5162 14.8219 10.4881C14.7505 10.4285 14.6552 10.4524 14.5719 10.4643C14.4648 10.4881 12.7981 11.5952 9.54809 13.7857C9.07189 14.1071 8.64332 14.2738 8.26237 14.2619C7.8338 14.25 7.02427 14.0238 6.41713 13.8214C5.66713 13.5833 5.0838 13.4524 5.13142 13.0357C5.15523 12.8214 5.45285 12.6071 6.01237 12.3809C9.48856 10.869 11.7981 9.86903 12.9528 9.39283C16.2624 8.01188 16.9409 7.77379 17.3933 7.77379C17.4886 7.77379 17.7148 7.7976 17.8576 7.91664C17.9767 8.01188 18.0124 8.14283 18.0243 8.23807C18.0124 8.3095 18.0362 8.52379 18.0243 8.69045Z"
      fill="#313131" />
  </g>
  <defs>
    <clipPath id="clip0_192_6010">
      <rect width="25" height="25" fill="white" />
    </clipPath>
  </defs>
</svg>