<svg viewBox="0 0 168 168" fill="none" xmlns="http://www.w3.org/2000/svg">
  <path
    d="M125.793 16.9245L123.967 35.3703L121.699 34.3175L123.349 18.9871L112.516 30.0537L110.226 28.9904L123.412 15.819L125.793 16.9245Z"
    fill="#F9462F" />
  <path
    d="M109.75 26.3924C110.147 26.5218 110.434 26.7648 110.614 27.1216C110.794 27.4783 110.82 27.8465 110.694 28.2259C110.567 28.6054 110.325 28.8855 109.966 29.0664C109.602 29.263 109.221 29.2967 108.825 29.1673C108.445 29.0431 108.168 28.7947 107.993 28.4222C107.814 28.0654 107.787 27.6973 107.914 27.3179C108.04 26.9384 108.283 26.6582 108.642 26.4774C109.001 26.2966 109.37 26.2683 109.75 26.3924ZM115.469 12.7173L111.516 24.5757L109.448 23.9005L113.401 12.0421L115.469 12.7173Z"
    fill="#F9462F" />
  <path
    d="M107.36 15.7044C107.378 14.5679 107.059 13.6171 106.403 12.8519C105.73 12.0833 104.814 11.5794 103.656 11.3401C102.04 11.0064 100.739 11.3589 99.7536 12.3978L98.1584 10.9962C99.7384 9.39944 101.728 8.84878 104.127 9.34426C106.07 9.74536 107.526 10.6757 108.496 12.1353C109.446 13.6079 109.725 15.2737 109.333 17.1329C108.944 18.9757 108.025 20.3857 106.576 21.3627C105.127 22.3398 103.455 22.6328 101.562 22.2418C99.7666 21.8711 98.4398 20.9334 97.5817 19.4288C96.7038 17.9371 96.4523 16.3024 96.8269 14.5248C96.8923 14.215 96.9838 13.902 97.1015 13.586L107.36 15.7044ZM101.985 20.2359C103.127 20.4719 104.143 20.3412 105.031 19.8439C105.916 19.3629 106.562 18.6028 106.968 17.5635L98.7907 15.8749C98.7262 17.0698 98.9976 18.0449 99.6049 18.7999C100.212 19.555 101.006 20.0337 101.985 20.2359Z"
    fill="#F9462F" />
  <path
    d="M79.8886 20.3162L77.6137 20.2951L81.6069 7.83163L83.8318 7.85228L86.6691 17.129L89.6816 7.90658L91.9065 7.92723L95.6629 20.4626L93.388 20.4415L90.7281 10.9164L87.6882 20.3886L85.5883 20.3691L82.7287 10.8172L79.8886 20.3162Z"
    fill="#F9462F" />
  <path
    d="M61.039 24.2999L58.9419 24.8767L55.5631 12.842L57.6602 12.2652L58.2414 14.3352C58.8399 12.4593 60.1355 11.2473 62.1282 10.6993C63.8155 10.2352 65.425 10.4493 66.9566 11.3418C68.4926 12.2503 69.5084 13.5871 70.004 15.3521C70.4995 17.1172 70.3239 18.7731 69.4771 20.3197C68.6349 21.8823 67.37 22.8957 65.6827 23.3598C63.69 23.9078 61.9484 23.5312 60.4579 22.2299L61.039 24.2999ZM62.4307 12.794C61.2094 13.1299 60.3038 13.8198 59.714 14.8636C59.1287 15.9234 59.0073 17.0631 59.3496 18.2826C59.692 19.5021 60.3879 20.4083 61.4372 21.0013C62.491 21.6102 63.6286 21.7468 64.8499 21.4109C66.0552 21.0794 66.9504 20.3837 67.5357 19.3239C68.1255 18.2801 68.2492 17.1485 67.9069 15.9289C67.5645 14.7094 66.8664 13.7952 65.8125 13.1862C64.7632 12.5933 63.6359 12.4625 62.4307 12.794Z"
    fill="#F9462F" />
  <path d="M51.424 14.6386L58.5489 31.4404L56.5403 32.2748L49.4155 15.473L51.424 14.6386Z" fill="#F9462F" />
  <path d="M46.4644 16.8302L54.5742 33.1794L52.6179 34.13L44.5082 17.7809L46.4644 16.8302Z" fill="#F9462F" />
  <path
    d="M42.2071 151.076L44.033 132.63L46.3005 133.682L44.6509 149.013L55.484 137.946L57.7742 139.01L44.588 152.181L42.2071 151.076Z"
    fill="#F9462F" />
  <path
    d="M58.2496 141.608C57.8535 141.478 57.5656 141.235 57.3858 140.878C57.2061 140.522 57.1795 140.154 57.306 139.774C57.4325 139.395 57.6752 139.114 58.0342 138.934C58.3984 138.737 58.7785 138.703 59.1746 138.833C59.5548 138.957 59.8322 139.205 60.0066 139.578C60.1864 139.935 60.213 140.303 60.0865 140.682C59.96 141.062 59.7173 141.342 59.3583 141.523C58.9994 141.703 58.6298 141.732 58.2496 141.608ZM52.5312 155.283L56.4844 143.424L58.5519 144.1L54.5987 155.958L52.5312 155.283Z"
    fill="#F9462F" />
  <path
    d="M60.6399 152.296C60.6218 153.432 60.9409 154.383 61.5972 155.148C62.2698 155.917 63.1855 156.421 64.3444 156.66C65.9603 156.994 67.261 156.641 68.2464 155.602L69.8416 157.004C68.2616 158.601 66.272 159.151 63.8726 158.656C61.9302 158.255 60.4742 157.324 59.5044 155.865C58.5544 154.392 58.2753 152.726 58.6672 150.867C59.0556 149.024 59.9745 147.614 61.4239 146.637C62.8732 145.66 64.5446 145.367 66.438 145.758C68.2334 146.129 69.5602 147.067 70.4183 148.571C71.2962 150.063 71.5477 151.698 71.1731 153.475C71.1077 153.785 71.0162 154.098 70.8985 154.414L60.6399 152.296ZM66.0151 147.764C64.8726 147.528 63.8571 147.659 62.9688 148.156C62.0839 148.637 61.4383 149.397 61.0318 150.436L69.2093 152.125C69.2738 150.93 69.0024 149.955 68.3951 149.2C67.7878 148.445 66.9945 147.966 66.0151 147.764Z"
    fill="#F9462F" />
  <path
    d="M88.1114 147.684L90.3863 147.705L86.3931 160.168L84.1682 160.148L81.3309 150.871L78.3184 160.093L76.0935 160.073L72.3371 147.537L74.612 147.558L77.2719 157.084L80.3118 147.611L82.4117 147.631L85.2713 157.183L88.1114 147.684Z"
    fill="#F9462F" />
  <path
    d="M106.961 143.7L109.058 143.123L112.437 155.158L110.34 155.735L109.759 153.665C109.16 155.541 107.864 156.753 105.872 157.301C104.184 157.765 102.575 157.551 101.043 156.658C99.5074 155.75 98.4916 154.413 97.996 152.648C97.5005 150.883 97.6761 149.227 98.5229 147.68C99.3651 146.118 100.63 145.104 102.317 144.64C104.31 144.092 106.052 144.469 107.542 145.77L106.961 143.7ZM105.569 155.206C106.791 154.87 107.696 154.18 108.286 153.136C108.871 152.077 108.993 150.937 108.65 149.717C108.308 148.498 107.612 147.592 106.563 146.999C105.509 146.39 104.371 146.253 103.15 146.589C101.945 146.921 101.05 147.616 100.464 148.676C99.8745 149.72 99.7508 150.852 100.093 152.071C100.436 153.291 101.134 154.205 102.187 154.814C103.237 155.407 104.364 155.537 105.569 155.206Z"
    fill="#F9462F" />
  <path d="M116.576 153.361L109.451 136.56L111.46 135.725L118.585 152.527L116.576 153.361Z" fill="#F9462F" />
  <path d="M121.536 151.17L113.426 134.821L115.382 133.87L123.492 150.219L121.536 151.17Z" fill="#F9462F" />
  <path
    d="M16.9244 44.2074L35.3703 46.0333L34.3175 48.3008L18.987 46.6511L30.0537 57.4842L28.9904 59.7744L15.819 46.5883L16.9244 44.2074Z"
    fill="#F9462F" />
  <path
    d="M26.3927 60.2501C26.522 59.854 26.7651 59.5661 27.1218 59.3863C27.4786 59.2066 27.8467 59.18 28.2262 59.3065C28.6056 59.433 28.8858 59.6757 29.0666 60.0347C29.2633 60.3989 29.2969 60.779 29.1675 61.1751C29.0434 61.5553 28.795 61.8327 28.4224 62.0071C28.0657 62.1869 27.6976 62.2135 27.3181 62.087C26.9386 61.9605 26.6585 61.7178 26.4776 61.3588C26.2968 60.9999 26.2685 60.6303 26.3927 60.2501ZM12.7175 54.5317L24.5759 58.4849L23.9007 60.5524L12.0423 56.5992L12.7175 54.5317Z"
    fill="#F9462F" />
  <path
    d="M15.7044 62.6402C14.5679 62.6221 13.6171 62.9412 12.8519 63.5974C12.0833 64.27 11.5794 65.1858 11.3401 66.3447C11.0064 67.9606 11.3589 69.2612 12.3978 70.2467L10.9962 71.8419C9.39941 70.2619 8.84876 68.2722 9.34424 65.8729C9.74535 63.9305 10.6757 62.4744 12.1353 61.5047C13.6079 60.5546 15.2737 60.2756 17.1329 60.6674C18.9757 61.0559 20.3856 61.9748 21.3627 63.4241C22.3398 64.8735 22.6328 66.5448 22.2418 68.4382C21.8711 70.2337 20.9334 71.5605 19.4287 72.4186C17.9371 73.2964 16.3024 73.548 14.5248 73.1733C14.215 73.108 13.902 73.0165 13.5859 72.8988L15.7044 62.6402ZM20.2359 68.0154C20.4719 66.8728 20.3412 65.8574 19.8439 64.9691C19.3629 64.0842 18.6028 63.4385 17.5635 63.0321L15.8748 71.2096C17.0698 71.2741 18.0448 71.0027 18.7999 70.3954C19.555 69.7881 20.0337 68.9947 20.2359 68.0154Z"
    fill="#F9462F" />
  <path
    d="M20.3162 90.1117L20.2951 92.3866L7.83163 88.3933L7.85228 86.1684L17.129 83.3312L7.90657 80.3187L7.92723 78.0938L20.4626 74.3374L20.4415 76.6123L10.9164 79.2721L20.3886 82.312L20.3691 84.4119L10.8172 87.2716L20.3162 90.1117Z"
    fill="#F9462F" />
  <path
    d="M24.2997 108.961L24.8765 111.058L12.8418 114.437L12.265 112.34L14.335 111.759C12.4591 111.16 11.2471 109.865 10.699 107.872C10.2349 106.185 10.4491 104.575 11.3415 103.044C12.25 101.508 13.5868 100.492 15.3519 99.9962C17.117 99.5007 18.7728 99.6763 20.3194 100.523C21.8821 101.365 22.8954 102.63 23.3595 104.318C23.9076 106.31 23.531 108.052 22.2297 109.542L24.2997 108.961ZM12.7938 107.57C13.1297 108.791 13.8195 109.696 14.8633 110.286C15.9232 110.871 17.0628 110.993 18.2823 110.651C19.5019 110.308 20.4081 109.612 21.001 108.563C21.61 107.509 21.7465 106.372 21.4106 105.15C21.0791 103.945 20.3835 103.05 19.3236 102.464C18.2799 101.875 17.1482 101.751 15.9287 102.093C14.7092 102.436 13.7949 103.134 13.1859 104.188C12.593 105.237 12.4623 106.364 12.7938 107.57Z"
    fill="#F9462F" />
  <path d="M14.6391 118.576L31.4408 111.451L32.2753 113.46L15.4735 120.584L14.6391 118.576Z" fill="#F9462F" />
  <path d="M16.8305 123.536L33.1796 115.426L34.1303 117.382L17.7811 125.492L16.8305 123.536Z" fill="#F9462F" />
  <path
    d="M151.076 127.793L132.63 125.967L133.683 123.699L149.013 125.349L137.947 114.516L139.01 112.226L152.181 125.412L151.076 127.793Z"
    fill="#F9462F" />
  <path
    d="M141.608 111.75C141.478 112.146 141.235 112.434 140.879 112.614C140.522 112.794 140.154 112.82 139.774 112.694C139.395 112.567 139.115 112.325 138.934 111.966C138.737 111.601 138.704 111.221 138.833 110.825C138.957 110.445 139.205 110.168 139.578 109.993C139.935 109.813 140.303 109.787 140.682 109.913C141.062 110.04 141.342 110.283 141.523 110.641C141.704 111 141.732 111.37 141.608 111.75ZM155.283 117.469L143.425 113.515L144.1 111.448L155.958 115.401L155.283 117.469Z"
    fill="#F9462F" />
  <path
    d="M152.295 109.36C153.432 109.378 154.382 109.059 155.148 108.403C155.916 107.73 156.42 106.815 156.659 105.656C156.993 104.04 156.641 102.739 155.602 101.754L157.003 100.158C158.6 101.738 159.151 103.728 158.655 106.127C158.254 108.07 157.324 109.526 155.864 110.496C154.392 111.446 152.726 111.725 150.867 111.333C149.024 110.944 147.614 110.025 146.637 108.576C145.66 107.127 145.367 105.455 145.758 103.562C146.128 101.767 147.066 100.44 148.571 99.5817C150.062 98.7039 151.697 98.4523 153.475 98.827C153.784 98.8923 154.097 98.9838 154.414 99.1015L152.295 109.36ZM147.764 103.985C147.528 105.127 147.658 106.143 148.156 107.031C148.637 107.916 149.397 108.562 150.436 108.968L152.125 100.791C150.93 100.726 149.955 100.998 149.2 101.605C148.444 102.212 147.966 103.006 147.764 103.985Z"
    fill="#F9462F" />
  <path
    d="M147.684 81.8886L147.705 79.6137L160.169 83.6069L160.148 85.8318L150.871 88.6691L160.094 91.6816L160.073 93.9065L147.538 97.6629L147.559 95.388L157.084 92.7281L147.612 89.6882L147.631 87.5883L157.183 84.7287L147.684 81.8886Z"
    fill="#F9462F" />
  <path
    d="M143.7 63.0388L143.124 60.9416L155.158 57.5628L155.735 59.6599L153.665 60.2411C155.541 60.8396 156.753 62.1352 157.301 64.1279C157.765 65.8152 157.551 67.4247 156.658 68.9563C155.75 70.4923 154.413 71.5081 152.648 72.0037C150.883 72.4993 149.227 72.3236 147.681 71.4769C146.118 70.6346 145.105 69.3698 144.64 67.6824C144.092 65.6898 144.469 63.9481 145.77 62.4576L143.7 63.0388ZM155.206 64.4304C154.87 63.2091 154.18 62.3035 153.137 61.7137C152.077 61.1284 150.937 61.007 149.718 61.3493C148.498 61.6917 147.592 62.3876 146.999 63.4369C146.39 64.4907 146.253 65.6283 146.589 66.8496C146.921 68.0549 147.617 68.9501 148.676 69.5354C149.72 70.1253 150.852 70.249 152.071 69.9066C153.291 69.5642 154.205 68.8661 154.814 67.8122C155.407 66.7629 155.538 65.6356 155.206 64.4304Z"
    fill="#F9462F" />
  <path d="M153.36 53.4242L136.559 60.5491L135.724 58.5405L152.526 51.4156L153.36 53.4242Z" fill="#F9462F" />
  <path d="M151.17 48.4641L134.821 56.5739L133.871 54.6177L150.22 46.5078L151.17 48.4641Z" fill="#F9462F" />
  <circle cx="84" cy="86" r="5" fill="#F9462F" fill-opacity="0.5" />
</svg>